<svg width="171" height="34" viewBox="0 0 171 34" fill="none" xmlns="http://www.w3.org/2000/svg">
<path d="M3.19408 8.184C2.23408 8.184 1.49008 7.92 0.962077 7.392C0.458077 6.84 0.206077 6.18 0.206077 5.412C0.206077 5.22 0.230077 4.992 0.278077 4.728C0.350077 4.464 0.434077 4.236 0.530077 4.044C0.842077 4.188 1.29808 4.296 1.89808 4.368C2.52208 4.416 3.24208 4.44 4.05808 4.44C5.28208 4.44 6.66208 4.392 8.19808 4.296C9.75808 4.176 11.2461 4.056 12.6621 3.936C14.0781 3.816 15.3261 3.708 16.4061 3.612C17.4861 3.492 18.1821 3.432 18.4941 3.432C19.3821 3.432 20.0181 3.768 20.4021 4.44C20.8101 5.088 21.1101 5.964 21.3021 7.068C20.6781 7.02 20.0541 6.984 19.4301 6.96C18.8301 6.912 18.3141 6.888 17.8821 6.888C17.1141 6.888 16.3341 6.912 15.5421 6.96C14.7741 7.008 13.9941 7.08 13.2021 7.176C12.8661 7.872 12.4941 8.7 12.0861 9.66C11.6781 10.596 11.2701 11.58 10.8621 12.612C10.4781 13.644 10.1061 14.676 9.74608 15.708C9.38608 16.716 9.07408 17.628 8.81008 18.444C8.28208 20.028 7.81408 21.492 7.40608 22.836C7.02208 24.18 6.67408 25.44 6.36208 26.616C6.07408 27.768 5.82208 28.872 5.60608 29.928C5.39008 30.984 5.19808 32.016 5.03008 33.024C3.42208 32.784 2.07808 31.776 0.998077 30C1.19008 29.256 1.41808 28.452 1.68208 27.588C1.97008 26.7 2.29408 25.704 2.65408 24.6C3.03808 23.472 3.48208 22.2 3.98608 20.784C4.49008 19.368 5.06608 17.76 5.71408 15.96C5.95408 15.288 6.20608 14.592 6.47008 13.872C6.73408 13.128 6.98608 12.396 7.22608 11.676C7.49008 10.956 7.71808 10.26 7.91008 9.588C8.12608 8.916 8.30608 8.304 8.45008 7.752C7.44208 7.872 6.48208 7.98 5.57008 8.076C4.68208 8.148 3.89008 8.184 3.19408 8.184ZM29.496 15.096C29.4 16.584 29.136 17.868 28.704 18.948C28.272 20.004 27.648 20.94 26.832 21.756C26.04 22.548 25.068 23.268 23.916 23.916C22.764 24.564 21.42 25.188 19.884 25.788C19.884 25.932 19.872 26.088 19.848 26.256C19.848 26.4 19.848 26.556 19.848 26.724C19.848 27.036 19.872 27.36 19.92 27.696C19.968 28.032 20.052 28.344 20.172 28.632C20.292 28.92 20.46 29.16 20.676 29.352C20.892 29.52 21.168 29.604 21.504 29.604C22.152 29.604 22.788 29.46 23.412 29.172C24.036 28.884 24.624 28.536 25.176 28.128C25.752 27.696 26.28 27.24 26.76 26.76C27.264 26.256 27.708 25.8 28.092 25.392C28.332 25.608 28.536 25.812 28.704 26.004C27.624 27.444 26.436 28.644 25.14 29.604C23.868 30.54 22.656 31.14 21.504 31.404C19.848 31.212 18.552 30.612 17.616 29.604C16.704 28.572 16.248 27.336 16.248 25.896C16.248 24.912 16.38 23.916 16.644 22.908C16.932 21.876 17.316 20.892 17.796 19.956C18.3 18.996 18.876 18.096 19.524 17.256C20.196 16.416 20.904 15.684 21.648 15.06C22.416 14.436 23.196 13.944 23.988 13.584C24.804 13.224 25.608 13.044 26.4 13.044C27.504 13.188 28.536 13.872 29.496 15.096ZM27.012 16.284C26.364 16.38 25.692 16.644 24.996 17.076C24.3 17.508 23.64 18.084 23.016 18.804C22.416 19.524 21.864 20.364 21.36 21.324C20.856 22.284 20.46 23.316 20.172 24.42C22.092 23.46 23.688 22.284 24.96 20.892C26.232 19.476 26.916 17.94 27.012 16.284ZM34.9787 23.664C34.9787 22.296 35.2547 20.976 35.8067 19.704C36.3827 18.408 37.1267 17.268 38.0387 16.284C38.9747 15.276 40.0307 14.472 41.2067 13.872C42.4067 13.248 43.6427 12.936 44.9147 12.936C46.1627 12.936 47.1227 13.248 47.7947 13.872C48.4667 14.496 48.8027 15.384 48.8027 16.536C48.8027 17.088 48.7187 17.628 48.5507 18.156C48.4067 18.66 48.2027 19.116 47.9387 19.524C47.6987 19.932 47.4107 20.268 47.0747 20.532C46.7387 20.772 46.4027 20.892 46.0667 20.892C45.7787 20.892 45.4787 20.808 45.1667 20.64C44.8787 20.448 44.6387 20.208 44.4467 19.92C46.0547 18.456 46.8587 17.124 46.8587 15.924C46.8587 15.228 46.5827 14.88 46.0307 14.88C45.5507 14.88 44.9507 15.108 44.2307 15.564C43.5107 16.02 42.8147 16.62 42.1427 17.364C41.1107 18.516 40.3187 19.8 39.7667 21.216C39.2387 22.608 38.9747 24.072 38.9747 25.608C38.9747 27.552 39.4067 28.716 40.2707 29.1C40.6307 29.052 41.0507 28.944 41.5307 28.776C42.0107 28.608 42.5267 28.392 43.0787 28.128C43.6307 27.84 44.1947 27.516 44.7707 27.156C45.3707 26.796 45.9467 26.412 46.4987 26.004C46.5947 26.076 46.6787 26.184 46.7507 26.328C46.8227 26.472 46.8587 26.604 46.8587 26.724C46.4507 27.228 45.9827 27.72 45.4547 28.2C44.9267 28.68 44.3747 29.124 43.7987 29.532C43.2227 29.916 42.6587 30.24 42.1067 30.504C41.5787 30.792 41.1107 30.972 40.7027 31.044C39.9107 30.972 39.1667 30.72 38.4707 30.288C37.7747 29.88 37.1627 29.34 36.6347 28.668C36.1307 27.996 35.7227 27.228 35.4107 26.364C35.1227 25.5 34.9787 24.6 34.9787 23.664ZM53.4439 29.388C53.4439 28.548 53.5279 27.564 53.6959 26.436C53.8639 25.284 54.1039 24.06 54.4159 22.764C54.7519 21.468 55.1359 20.112 55.5679 18.696C56.0239 17.28 56.5279 15.864 57.0799 14.448C57.5599 13.176 58.1119 11.892 58.7359 10.596C59.3839 9.3 60.0799 8.028 60.8239 6.78C61.5679 5.532 62.3359 4.344 63.1279 3.216C63.9439 2.088 64.7599 1.056 65.5759 0.119998C65.9599 0.119998 66.3679 0.167999 66.7999 0.263999C67.2559 0.359999 67.6879 0.491999 68.0959 0.659998C68.5279 0.803999 68.9119 0.983999 69.2479 1.2C69.6079 1.416 69.8959 1.632 70.1119 1.848C68.3119 3.696 66.6919 5.568 65.2519 7.464C63.8119 9.336 62.6719 11.1 61.8319 12.756C61.3759 13.668 60.9559 14.52 60.5719 15.312C60.2119 16.104 59.8759 16.896 59.5639 17.688C59.2519 18.456 58.9639 19.236 58.6999 20.028C58.4599 20.796 58.2319 21.612 58.0159 22.476C62.6239 16.596 66.0439 13.656 68.2759 13.656C68.8999 13.656 69.5719 13.86 70.2919 14.268C71.0119 14.676 71.6479 15.228 72.1999 15.924C71.4559 16.74 70.6879 17.724 69.8959 18.876C69.1039 20.028 68.3719 21.192 67.6999 22.368C67.0519 23.52 66.5119 24.6 66.0799 25.608C65.6719 26.592 65.4679 27.324 65.4679 27.804C65.4679 28.044 65.5039 28.212 65.5759 28.308C65.6479 28.38 65.8039 28.416 66.0439 28.416C66.4039 28.416 66.6919 28.368 66.9079 28.272C67.1239 28.176 67.2559 28.128 67.3039 28.128C67.4239 28.32 67.4959 28.452 67.5199 28.524C67.5439 28.596 67.5559 28.656 67.5559 28.704C67.5559 28.8 67.4119 28.944 67.1239 29.136C66.8359 29.304 66.4879 29.484 66.0799 29.676C65.6959 29.844 65.3119 30 64.9279 30.144C64.5439 30.288 64.2559 30.36 64.0639 30.36C63.8239 30.36 63.5839 30.288 63.3439 30.144C63.1039 30.024 62.8879 29.856 62.6959 29.64C62.5279 29.424 62.3839 29.184 62.2639 28.92C62.1679 28.656 62.1199 28.38 62.1199 28.092C62.1199 27.732 62.2159 27.204 62.4079 26.508C62.6239 25.788 62.9119 24.96 63.2719 24.024C63.6319 23.064 64.0639 22.02 64.5679 20.892C65.0719 19.764 65.6119 18.612 66.1879 17.436C66.1879 17.34 66.1399 17.292 66.0439 17.292C65.9719 17.292 65.7799 17.388 65.4679 17.58C65.1799 17.772 64.9039 17.964 64.6399 18.156C63.7759 18.804 62.8999 19.608 62.0119 20.568C61.1479 21.504 60.2959 22.536 59.4559 23.664C58.6399 24.792 57.8599 25.992 57.1159 27.264C56.3959 28.512 55.7719 29.772 55.2439 31.044C55.1719 31.212 55.0639 31.368 54.9199 31.512C54.7759 31.656 54.6559 31.728 54.5599 31.728C54.4879 31.728 54.3799 31.644 54.2359 31.476C54.1159 31.308 53.9959 31.092 53.8759 30.828C53.7799 30.588 53.6839 30.336 53.5879 30.072C53.4919 29.808 53.4439 29.58 53.4439 29.388Z" fill="#222222"/>
<path d="M99.2935 5.736C99.3655 6.144 99.4135 6.432 99.4375 6.6C99.4855 6.744 99.5095 6.948 99.5095 7.212C99.5095 8.004 99.3295 8.748 98.9695 9.444C98.6335 10.116 98.1655 10.596 97.5655 10.884C97.0855 10.236 96.4975 9.684 95.8015 9.228C95.1055 8.748 94.3375 8.364 93.4975 8.076C92.6815 7.764 91.8295 7.536 90.9415 7.392C90.0535 7.248 89.1895 7.176 88.3495 7.176C87.5095 7.176 86.7175 7.248 85.9735 7.392C85.2535 7.512 84.6055 7.692 84.0295 7.932C83.4775 8.148 83.0335 8.424 82.6975 8.76C82.3855 9.096 82.2295 9.48 82.2295 9.912C82.3015 10.44 82.6255 10.98 83.2015 11.532C83.7775 12.06 84.4855 12.588 85.3255 13.116C86.1655 13.62 87.0895 14.124 88.0975 14.628C89.1295 15.132 90.1375 15.612 91.1215 16.068C92.3455 16.644 93.4015 17.184 94.2895 17.688C95.1775 18.168 95.9095 18.708 96.4855 19.308C97.0615 19.884 97.4935 20.544 97.7815 21.288C98.0695 22.032 98.2135 22.932 98.2135 23.988C98.2135 25.212 98.0095 26.364 97.6015 27.444C97.1935 28.5 96.5935 29.424 95.8015 30.216C95.0335 31.008 94.0975 31.62 92.9935 32.052C91.8895 32.508 90.6535 32.736 89.2855 32.736C87.9415 32.736 86.4895 32.532 84.9295 32.124C83.3695 31.716 81.9055 31.152 80.5375 30.432C79.1935 29.736 78.0655 28.932 77.1535 28.02C76.2655 27.084 75.8215 26.1 75.8215 25.068C75.8215 24.588 75.9535 23.976 76.2175 23.232C76.5055 22.488 77.0095 21.708 77.7295 20.892C77.8015 21.612 78.1855 22.464 78.8815 23.448C79.6015 24.432 80.6695 25.344 82.0855 26.184C83.4055 26.952 84.7615 27.516 86.1535 27.876C87.5695 28.212 88.8895 28.38 90.1135 28.38C91.4575 28.38 92.5495 28.212 93.3895 27.876C94.2295 27.54 94.8895 27.144 95.3695 26.688C95.8495 26.208 96.1855 25.728 96.3775 25.248C96.5695 24.768 96.6775 24.384 96.7015 24.096C96.6775 23.616 96.4495 23.16 96.0175 22.728C95.6095 22.272 95.0455 21.84 94.3255 21.432C93.6295 21 92.8135 20.568 91.8775 20.136C90.9415 19.704 89.9695 19.272 88.9615 18.84C87.4495 18.168 86.1415 17.544 85.0375 16.968C83.9575 16.368 83.0575 15.768 82.3375 15.168C81.6415 14.544 81.1255 13.896 80.7895 13.224C80.4775 12.552 80.3215 11.784 80.3215 10.92C80.3215 9.576 80.7295 8.304 81.5455 7.104C82.3615 5.904 83.5375 4.992 85.0735 4.368C85.8415 4.032 86.6575 3.792 87.5215 3.648C88.4095 3.504 89.2735 3.432 90.1135 3.432C91.6975 3.432 93.2455 3.648 94.7575 4.08C96.2695 4.512 97.7815 5.064 99.2935 5.736ZM105.765 16.212C105.645 16.068 105.537 15.768 105.441 15.312C105.345 14.832 105.297 14.424 105.297 14.088C105.921 14.136 106.521 14.184 107.097 14.232C107.673 14.256 108.201 14.28 108.681 14.304C109.041 13.584 109.425 12.876 109.833 12.18C110.265 11.46 110.673 10.812 111.057 10.236C111.465 9.636 111.837 9.132 112.173 8.724C112.533 8.316 112.809 8.052 113.001 7.932C113.241 7.932 113.541 7.98 113.901 8.076C114.285 8.148 114.669 8.256 115.053 8.4C115.437 8.52 115.785 8.652 116.097 8.796C116.409 8.94 116.625 9.084 116.745 9.228C116.025 10.14 115.401 10.992 114.873 11.784C114.369 12.552 113.817 13.44 113.217 14.448C113.697 14.448 114.177 14.436 114.657 14.412C115.161 14.388 115.665 14.352 116.169 14.304C116.289 14.424 116.385 14.58 116.457 14.772C116.529 14.94 116.565 15.12 116.565 15.312C115.389 15.744 113.961 15.984 112.281 16.032C111.681 17.184 111.141 18.336 110.661 19.488C110.205 20.616 109.809 21.708 109.473 22.764C109.161 23.82 108.909 24.816 108.717 25.752C108.549 26.688 108.465 27.528 108.465 28.272C108.465 29.328 108.861 29.916 109.653 30.036C110.373 29.94 111.057 29.76 111.705 29.496C112.353 29.232 112.929 28.896 113.433 28.488C113.577 28.704 113.661 28.884 113.685 29.028C113.541 29.244 113.289 29.496 112.929 29.784C112.593 30.072 112.221 30.348 111.813 30.612C111.405 30.9 111.009 31.14 110.625 31.332C110.241 31.524 109.953 31.632 109.761 31.656C109.161 31.632 108.561 31.5 107.961 31.26C107.361 31.02 106.809 30.72 106.305 30.36C105.825 30 105.429 29.604 105.117 29.172C104.805 28.716 104.649 28.272 104.649 27.84C104.649 27.264 104.721 26.544 104.865 25.68C105.033 24.792 105.261 23.832 105.549 22.8C105.837 21.768 106.173 20.688 106.557 19.56C106.941 18.432 107.361 17.316 107.817 16.212H105.765ZM124.145 31.26C122.777 31.116 121.685 30.516 120.869 29.46C120.053 28.404 119.645 27.06 119.645 25.428C119.645 24.468 119.789 23.472 120.077 22.44C120.365 21.408 120.773 20.412 121.301 19.452C121.829 18.468 122.453 17.544 123.173 16.68C123.893 15.816 124.673 15.072 125.513 14.448C126.833 13.464 128.069 12.972 129.221 12.972C129.989 13.38 130.745 14.232 131.489 15.528C131.609 15.528 131.717 15.528 131.813 15.528C131.909 15.504 132.017 15.492 132.137 15.492C133.409 15.492 134.045 16.62 134.045 18.876C134.045 20.388 133.793 21.828 133.289 23.196C132.809 24.54 132.125 25.764 131.237 26.868C130.373 27.972 129.329 28.908 128.105 29.676C126.905 30.42 125.585 30.948 124.145 31.26ZM125.981 19.92C125.573 20.472 125.189 21.072 124.829 21.72C124.469 22.368 124.157 23.028 123.893 23.7C123.629 24.348 123.425 24.984 123.281 25.608C123.137 26.208 123.065 26.748 123.065 27.228C123.065 27.804 123.161 28.356 123.353 28.884C123.545 29.412 123.761 29.712 124.001 29.784C125.081 29.544 126.065 29.1 126.953 28.452C127.865 27.78 128.645 26.952 129.293 25.968C129.965 24.984 130.481 23.868 130.841 22.62C131.225 21.372 131.417 20.04 131.417 18.624C131.417 18 131.381 17.508 131.309 17.148C131.237 16.788 131.117 16.476 130.949 16.212C129.893 16.524 128.945 17.028 128.105 17.724C127.289 18.42 126.581 19.152 125.981 19.92ZM138.524 29.28C138.644 28.584 138.848 27.672 139.136 26.544C139.448 25.392 139.808 24.18 140.216 22.908C140.624 21.612 141.056 20.316 141.512 19.02C141.968 17.724 142.412 16.56 142.844 15.528C143.156 14.784 143.432 14.208 143.672 13.8C143.912 13.368 144.176 13.008 144.464 12.72C144.8 12.768 145.148 12.852 145.508 12.972C145.868 13.092 146.216 13.236 146.552 13.404C146.888 13.572 147.188 13.752 147.452 13.944C147.716 14.112 147.92 14.28 148.064 14.448C147.416 15.216 146.84 16.092 146.336 17.076C145.856 18.06 145.364 19.32 144.86 20.856C146.156 19.704 147.296 18.6 148.28 17.544C149.288 16.488 150.224 15.312 151.088 14.016C151.232 13.896 151.484 13.836 151.844 13.836C152.18 13.836 152.504 13.896 152.816 14.016C153.128 14.112 153.344 14.256 153.464 14.448C153.032 15.6 152.816 16.74 152.816 17.868C152.816 18.924 152.972 19.716 153.284 20.244C153.26 20.388 153.092 20.664 152.78 21.072C152.492 21.48 152.168 21.864 151.808 22.224C151.16 21.888 150.584 21.432 150.08 20.856C149.576 20.256 149.204 19.608 148.964 18.912C147.836 19.704 146.876 20.484 146.084 21.252C145.292 21.996 144.608 22.836 144.032 23.772C143.48 24.684 143 25.74 142.592 26.94C142.208 28.14 141.836 29.568 141.476 31.224C141.26 31.2 140.996 31.116 140.684 30.972C140.396 30.852 140.096 30.696 139.784 30.504C139.496 30.312 139.232 30.108 138.992 29.892C138.752 29.676 138.596 29.472 138.524 29.28ZM170.395 15.096C170.299 16.584 170.035 17.868 169.603 18.948C169.171 20.004 168.547 20.94 167.731 21.756C166.939 22.548 165.967 23.268 164.815 23.916C163.663 24.564 162.319 25.188 160.783 25.788C160.783 25.932 160.771 26.088 160.747 26.256C160.747 26.4 160.747 26.556 160.747 26.724C160.747 27.036 160.771 27.36 160.819 27.696C160.867 28.032 160.951 28.344 161.071 28.632C161.191 28.92 161.359 29.16 161.575 29.352C161.791 29.52 162.067 29.604 162.403 29.604C163.051 29.604 163.687 29.46 164.311 29.172C164.935 28.884 165.523 28.536 166.075 28.128C166.651 27.696 167.179 27.24 167.659 26.76C168.163 26.256 168.607 25.8 168.991 25.392C169.231 25.608 169.435 25.812 169.603 26.004C168.523 27.444 167.335 28.644 166.039 29.604C164.767 30.54 163.555 31.14 162.403 31.404C160.747 31.212 159.451 30.612 158.515 29.604C157.603 28.572 157.147 27.336 157.147 25.896C157.147 24.912 157.279 23.916 157.543 22.908C157.831 21.876 158.215 20.892 158.695 19.956C159.199 18.996 159.775 18.096 160.423 17.256C161.095 16.416 161.803 15.684 162.547 15.06C163.315 14.436 164.095 13.944 164.887 13.584C165.703 13.224 166.507 13.044 167.299 13.044C168.403 13.188 169.435 13.872 170.395 15.096ZM167.911 16.284C167.263 16.38 166.591 16.644 165.895 17.076C165.199 17.508 164.539 18.084 163.915 18.804C163.315 19.524 162.763 20.364 162.259 21.324C161.755 22.284 161.359 23.316 161.071 24.42C162.991 23.46 164.587 22.284 165.859 20.892C167.131 19.476 167.815 17.94 167.911 16.284Z" fill="#F15025"/>
</svg>
