<svg width="207" height="44" viewBox="0 0 207 44" fill="none" xmlns="http://www.w3.org/2000/svg">
<path d="M7.22072 32.304C6.66872 32.592 6.08072 32.736 5.45672 32.736C4.68872 32.64 3.94472 32.448 3.22472 32.16C2.52872 31.872 2.01272 31.524 1.67672 31.116C1.48472 29.94 1.32872 28.86 1.20872 27.876C1.08872 26.892 0.992719 25.968 0.920719 25.104C0.848719 24.216 0.800719 23.376 0.776719 22.584C0.752719 21.768 0.740719 20.952 0.740719 20.136C0.740719 19.056 0.752719 17.916 0.776719 16.716C0.800719 15.516 0.824719 14.244 0.848719 12.9C0.896719 11.532 0.932719 10.08 0.956719 8.544C0.980719 6.984 0.992719 5.292 0.992719 3.468C1.30472 3.468 1.77272 3.564 2.39672 3.756C3.02072 3.924 3.63272 4.128 4.23272 4.368C4.85672 4.608 5.40872 4.86 5.88872 5.124C6.36872 5.364 6.63272 5.568 6.68072 5.736C6.44072 6.408 6.22472 7.284 6.03272 8.364C5.86472 9.444 5.72072 10.644 5.60072 11.964C5.50472 13.284 5.43272 14.676 5.38472 16.14C5.33672 17.604 5.31272 19.056 5.31272 20.496C5.31272 21.576 5.32472 22.548 5.34872 23.412C5.37272 24.252 5.39672 25.02 5.42072 25.716C5.46872 26.388 5.52872 27.024 5.60072 27.624C5.67272 28.2 5.75672 28.776 5.85272 29.352C6.52472 27.312 7.25672 25.272 8.04872 23.232C8.86472 21.192 9.69272 19.236 10.5327 17.364C11.3967 15.468 12.2487 13.704 13.0887 12.072C13.9287 10.44 14.7207 9.024 15.4647 7.824C16.2327 6.6 16.9167 5.64 17.5167 4.944C18.1167 4.224 18.6087 3.84 18.9927 3.792C19.2567 3.84 19.5327 3.948 19.8207 4.116C20.1327 4.26 20.4207 4.44 20.6847 4.656C20.9487 4.872 21.1887 5.112 21.4047 5.376C21.6207 5.64 21.7887 5.904 21.9087 6.168C21.0207 6.48 20.0607 7.212 19.0287 8.364C18.0207 9.516 17.0007 10.908 15.9687 12.54C14.9367 14.148 13.9287 15.912 12.9447 17.832C11.9847 19.728 11.1087 21.588 10.3167 23.412C9.54872 25.236 8.88872 26.94 8.33672 28.524C7.78472 30.108 7.41272 31.368 7.22072 32.304ZM20.5694 27.588C20.5694 27.372 20.5814 27.108 20.6054 26.796C20.6534 26.46 20.7254 26.028 20.8214 25.5C20.9174 24.948 21.0374 24.288 21.1814 23.52C21.3494 22.752 21.5534 21.828 21.7934 20.748C21.8414 20.508 21.9494 20.124 22.1174 19.596C22.2854 19.068 22.5014 18.516 22.7654 17.94C23.0534 17.34 23.3894 16.764 23.7734 16.212C24.1814 15.66 24.6614 15.252 25.2134 14.988C25.6214 15.084 26.1614 15.336 26.8334 15.744C27.5054 16.128 28.0814 16.668 28.5614 17.364C28.0094 17.988 27.5414 18.612 27.1574 19.236C26.7974 19.86 26.4614 20.508 26.1494 21.18C25.8614 21.852 25.5854 22.548 25.3214 23.268C25.0814 23.988 24.8054 24.744 24.4934 25.536C24.2294 26.208 23.9894 26.904 23.7734 27.624C23.5574 28.32 23.4374 28.932 23.4134 29.46C23.4134 29.892 23.4014 30.192 23.3774 30.36C23.3774 30.552 23.3174 30.648 23.1974 30.648C23.1014 30.648 22.9094 30.588 22.6214 30.468C22.3334 30.348 22.0334 30.168 21.7214 29.928C21.4334 29.664 21.1694 29.34 20.9294 28.956C20.6894 28.572 20.5694 28.116 20.5694 27.588ZM27.4454 11.964C27.4454 11.82 27.4814 11.604 27.5534 11.316C27.4334 11.196 27.3254 11.016 27.2294 10.776C27.1574 10.536 27.1214 10.32 27.1214 10.128C27.1214 9.912 27.1454 9.624 27.1934 9.264C27.2654 8.88 27.3494 8.472 27.4454 8.04C27.5414 7.608 27.6614 7.164 27.8054 6.708C27.9494 6.228 28.0934 5.796 28.2374 5.412C28.5254 5.412 28.8734 5.496 29.2814 5.664C29.7134 5.808 30.1454 6.012 30.5774 6.276C31.0094 6.516 31.4054 6.792 31.7654 7.104C32.1254 7.392 32.4014 7.668 32.5934 7.932C32.3294 8.196 31.9814 8.568 31.5494 9.048C31.1174 9.504 30.6974 9.996 30.2894 10.524C29.8814 11.028 29.5094 11.508 29.1734 11.964C28.8374 12.42 28.6214 12.744 28.5254 12.936C28.2374 12.888 27.9854 12.768 27.7694 12.576C27.5534 12.36 27.4454 12.156 27.4454 11.964ZM38.4732 12.54C39.0972 12.732 39.6852 13.164 40.2372 13.836C40.7892 14.484 41.1972 15.204 41.4612 15.996C41.1972 16.644 40.7892 17.424 40.2372 18.336C39.6852 19.248 39.1332 20.184 38.5812 21.144C38.0292 22.08 37.5252 22.98 37.0692 23.844C36.6372 24.684 36.3852 25.38 36.3132 25.932C36.6972 25.524 37.1172 25.056 37.5732 24.528C38.0532 23.976 38.5092 23.436 38.9412 22.908C39.3972 22.356 39.8172 21.864 40.2012 21.432C40.5852 20.976 40.8852 20.64 41.1012 20.424C41.5572 19.944 42.0972 19.392 42.7212 18.768C43.3452 18.12 43.9932 17.52 44.6652 16.968C45.3612 16.392 46.0572 15.912 46.7532 15.528C47.4492 15.12 48.0852 14.916 48.6612 14.916C49.2852 14.916 49.8012 15.132 50.2092 15.564C50.6412 15.972 50.9772 16.404 51.2172 16.86C51.2172 16.908 51.1212 16.98 50.9292 17.076C50.7612 17.148 50.5092 17.376 50.1732 17.76C49.8372 18.192 49.4532 18.792 49.0212 19.56C48.6132 20.304 48.2052 21.12 47.7972 22.008C47.4132 22.872 47.0892 23.76 46.8252 24.672C46.5612 25.584 46.4292 26.412 46.4292 27.156C46.4292 27.756 46.5012 28.14 46.6452 28.308C46.8132 28.476 47.0412 28.56 47.3292 28.56C47.5932 28.56 47.8692 28.5 48.1572 28.38C48.4452 28.26 48.6732 28.2 48.8412 28.2C48.9372 28.248 49.0092 28.356 49.0572 28.524C49.1292 28.668 49.1652 28.8 49.1652 28.92C48.9732 29.088 48.7452 29.256 48.4812 29.424C48.2172 29.592 47.9412 29.748 47.6532 29.892C47.3652 30.036 47.0772 30.156 46.7892 30.252C46.5252 30.348 46.2852 30.396 46.0692 30.396C45.3732 30.396 44.7972 30.288 44.3412 30.072C43.9092 29.88 43.5612 29.616 43.2972 29.28C43.0572 28.944 42.8892 28.548 42.7932 28.092C42.6972 27.612 42.6492 27.108 42.6492 26.58C42.6492 26.292 42.6732 25.968 42.7212 25.608C42.7692 25.248 42.8652 24.828 43.0092 24.348C43.1532 23.844 43.3572 23.256 43.6212 22.584C43.8852 21.888 44.2212 21.06 44.6292 20.1C44.5812 20.1 44.2572 20.268 43.6572 20.604C43.0572 20.94 42.4092 21.456 41.7132 22.152C40.5852 23.232 39.5652 24.3 38.6532 25.356C37.7652 26.412 36.8532 27.588 35.9172 28.884C35.3892 29.628 34.9212 30.252 34.5132 30.756C34.1292 31.284 33.7932 31.632 33.5052 31.8C33.0012 31.512 32.6292 31.104 32.3892 30.576C32.1492 30.072 31.9692 29.544 31.8492 28.992C31.8492 28.536 31.9092 27.96 32.0292 27.264C32.1732 26.568 32.3532 25.8 32.5692 24.96C32.8092 24.096 33.0972 23.196 33.4332 22.26C33.7692 21.324 34.1412 20.388 34.5492 19.452C35.4612 17.34 36.2892 15.684 37.0332 14.484C37.8012 13.284 38.2812 12.636 38.4732 12.54ZM57.8066 16.212C57.6866 16.068 57.5786 15.768 57.4826 15.312C57.3866 14.832 57.3386 14.424 57.3386 14.088C57.9626 14.136 58.5626 14.184 59.1386 14.232C59.7146 14.256 60.2426 14.28 60.7226 14.304C61.0826 13.584 61.4666 12.876 61.8746 12.18C62.3066 11.46 62.7146 10.812 63.0986 10.236C63.5066 9.636 63.8786 9.132 64.2146 8.724C64.5746 8.316 64.8506 8.052 65.0426 7.932C65.2826 7.932 65.5826 7.98 65.9426 8.076C66.3266 8.148 66.7106 8.256 67.0946 8.4C67.4786 8.52 67.8266 8.652 68.1386 8.796C68.4506 8.94 68.6666 9.084 68.7866 9.228C68.0666 10.14 67.4426 10.992 66.9146 11.784C66.4106 12.552 65.8586 13.44 65.2586 14.448C65.7386 14.448 66.2186 14.436 66.6986 14.412C67.2026 14.388 67.7066 14.352 68.2106 14.304C68.3306 14.424 68.4266 14.58 68.4986 14.772C68.5706 14.94 68.6066 15.12 68.6066 15.312C67.4306 15.744 66.0026 15.984 64.3226 16.032C63.7226 17.184 63.1826 18.336 62.7026 19.488C62.2466 20.616 61.8506 21.708 61.5146 22.764C61.2026 23.82 60.9506 24.816 60.7586 25.752C60.5906 26.688 60.5066 27.528 60.5066 28.272C60.5066 29.328 60.9026 29.916 61.6946 30.036C62.4146 29.94 63.0986 29.76 63.7466 29.496C64.3946 29.232 64.9706 28.896 65.4746 28.488C65.6186 28.704 65.7026 28.884 65.7266 29.028C65.5826 29.244 65.3306 29.496 64.9706 29.784C64.6346 30.072 64.2626 30.348 63.8546 30.612C63.4466 30.9 63.0506 31.14 62.6666 31.332C62.2826 31.524 61.9946 31.632 61.8026 31.656C61.2026 31.632 60.6026 31.5 60.0026 31.26C59.4026 31.02 58.8506 30.72 58.3466 30.36C57.8666 30 57.4706 29.604 57.1586 29.172C56.8466 28.716 56.6906 28.272 56.6906 27.84C56.6906 27.264 56.7626 26.544 56.9066 25.68C57.0746 24.792 57.3026 23.832 57.5906 22.8C57.8786 21.768 58.2146 20.688 58.5986 19.56C58.9826 18.432 59.4026 17.316 59.8586 16.212H57.8066ZM84.3589 15.456C84.5989 15.456 84.8749 15.504 85.1869 15.6C85.5229 15.672 85.8229 15.78 86.0869 15.924C86.3509 16.044 86.5669 16.176 86.7349 16.32C86.9269 16.464 87.0229 16.596 87.0229 16.716C86.5429 17.724 86.0989 18.744 85.6909 19.776C85.2829 20.784 84.9349 21.756 84.6469 22.692C84.3589 23.628 84.1309 24.504 83.9629 25.32C83.8189 26.136 83.7469 26.844 83.7469 27.444C83.7469 28.116 83.8189 28.68 83.9629 29.136C84.1069 29.568 84.3469 29.88 84.6829 30.072C84.3949 30.264 84.0229 30.42 83.5669 30.54C83.1109 30.66 82.7029 30.72 82.3429 30.72C81.0469 30.72 80.3989 29.832 80.3989 28.056C80.3989 26.688 80.8549 24.816 81.7669 22.44C81.2869 23.544 80.7349 24.588 80.1109 25.572C79.4869 26.532 78.8509 27.384 78.2029 28.128C77.5549 28.872 76.8949 29.484 76.2229 29.964C75.5749 30.42 74.9749 30.696 74.4229 30.792C73.5349 30.744 72.8149 30.324 72.2629 29.532C71.7109 28.716 71.4349 27.684 71.4349 26.436C71.4349 25.092 71.7229 23.676 72.2989 22.188C72.8749 20.7 73.6069 19.32 74.4949 18.048C75.4069 16.776 76.3909 15.72 77.4469 14.88C78.5029 14.016 79.5229 13.56 80.5069 13.512C80.7469 13.584 81.0109 13.728 81.2989 13.944C81.6109 14.16 81.8989 14.412 82.1629 14.7C82.4509 14.988 82.6909 15.288 82.8829 15.6C83.0749 15.888 83.1829 16.14 83.2069 16.356C82.2469 16.5 81.2509 16.968 80.2189 17.76C79.2109 18.552 78.2869 19.512 77.4469 20.64C76.6309 21.744 75.9589 22.932 75.4309 24.204C74.9029 25.476 74.6389 26.664 74.6389 27.768C74.6389 28.224 74.8069 28.512 75.1429 28.632C75.8389 28.488 76.6429 27.9 77.5549 26.868C78.4669 25.812 79.5709 24.192 80.8669 22.008C81.1069 21.576 81.3709 21.096 81.6589 20.568C81.9709 20.04 82.2829 19.488 82.5949 18.912C82.9069 18.336 83.2069 17.76 83.4949 17.184C83.8069 16.584 84.0949 16.008 84.3589 15.456ZM84.9661 40.728C84.9661 40.584 85.0141 40.452 85.1101 40.332C85.2061 40.212 85.3141 40.092 85.4341 39.972C85.7221 40.236 85.9741 40.44 86.1901 40.584C86.3821 40.728 86.5741 40.848 86.7661 40.944C86.9341 41.04 87.1141 41.1 87.3061 41.124C87.4981 41.148 87.7261 41.16 87.9901 41.16C89.2381 41.16 90.4261 40.824 91.5541 40.152C92.6821 39.504 93.7381 38.556 94.7221 37.308C95.7301 36.06 96.6421 34.536 97.4581 32.736C98.2741 30.936 98.9941 28.896 99.6181 26.616C99.3301 26.904 98.9701 27.228 98.5381 27.588C98.1301 27.924 97.6981 28.248 97.2421 28.56C96.7861 28.872 96.3301 29.16 95.8741 29.424C95.4421 29.688 95.0701 29.88 94.7581 30C94.3501 29.928 93.9661 29.76 93.6061 29.496C93.2701 29.208 92.9701 28.86 92.7061 28.452C92.4421 28.044 92.2381 27.588 92.0941 27.084C91.9501 26.556 91.8781 26.004 91.8781 25.428C91.8781 24.492 92.0461 23.532 92.3821 22.548C92.7421 21.564 93.2101 20.604 93.7861 19.668C94.3621 18.708 95.0341 17.808 95.8021 16.968C96.5941 16.128 97.4221 15.396 98.2861 14.772C99.1741 14.148 100.062 13.656 100.95 13.296C101.862 12.912 102.75 12.72 103.614 12.72C104.454 12.72 105.078 12.9 105.486 13.26C105.918 13.596 106.23 14.184 106.422 15.024C106.158 14.88 105.822 14.808 105.414 14.808C104.838 14.808 104.166 15.036 103.398 15.492C102.654 15.948 101.886 16.548 101.094 17.292C100.326 18.012 99.5581 18.852 98.7901 19.812C98.0221 20.748 97.3381 21.708 96.7381 22.692C96.1621 23.676 95.6821 24.636 95.2981 25.572C94.9381 26.508 94.7581 27.348 94.7581 28.092C94.7581 28.26 94.7701 28.368 94.7941 28.416C94.8181 28.44 94.8541 28.452 94.9021 28.452C95.1181 28.452 95.4061 28.332 95.7661 28.092C96.1501 27.852 96.5701 27.552 97.0261 27.192C97.5061 26.808 97.9981 26.376 98.5021 25.896C99.0061 25.392 99.4861 24.888 99.9421 24.384C100.974 23.232 101.91 21.948 102.75 20.532C103.614 19.092 104.298 17.7 104.802 16.356C105.45 16.404 106.026 16.512 106.53 16.68C107.034 16.848 107.382 17.028 107.574 17.22C106.758 19.092 106.098 20.664 105.594 21.936C105.114 23.208 104.694 24.336 104.334 25.32C103.686 27.048 103.074 28.62 102.498 30.036C101.946 31.476 101.37 32.796 100.77 33.996C100.194 35.22 99.5581 36.348 98.8621 37.38C98.1901 38.436 97.4221 39.444 96.5581 40.404C96.1501 40.86 95.6821 41.256 95.1541 41.592C94.6501 41.952 94.1221 42.252 93.5701 42.492C93.0421 42.732 92.5141 42.912 91.9861 43.032C91.4821 43.152 91.0141 43.212 90.5821 43.212C90.0061 43.212 89.4181 43.14 88.8181 42.996C88.2181 42.876 87.6661 42.696 87.1621 42.456C86.6341 42.24 86.1781 41.976 85.7941 41.664C85.4101 41.376 85.1341 41.064 84.9661 40.728ZM124.933 15.096C124.837 16.584 124.573 17.868 124.141 18.948C123.709 20.004 123.085 20.94 122.269 21.756C121.477 22.548 120.505 23.268 119.353 23.916C118.201 24.564 116.857 25.188 115.321 25.788C115.321 25.932 115.309 26.088 115.285 26.256C115.285 26.4 115.285 26.556 115.285 26.724C115.285 27.036 115.309 27.36 115.357 27.696C115.405 28.032 115.489 28.344 115.609 28.632C115.729 28.92 115.897 29.16 116.113 29.352C116.329 29.52 116.605 29.604 116.941 29.604C117.589 29.604 118.225 29.46 118.849 29.172C119.473 28.884 120.061 28.536 120.613 28.128C121.189 27.696 121.717 27.24 122.197 26.76C122.701 26.256 123.145 25.8 123.529 25.392C123.769 25.608 123.973 25.812 124.141 26.004C123.061 27.444 121.873 28.644 120.577 29.604C119.305 30.54 118.093 31.14 116.941 31.404C115.285 31.212 113.989 30.612 113.053 29.604C112.141 28.572 111.685 27.336 111.685 25.896C111.685 24.912 111.817 23.916 112.081 22.908C112.369 21.876 112.753 20.892 113.233 19.956C113.737 18.996 114.313 18.096 114.961 17.256C115.633 16.416 116.341 15.684 117.085 15.06C117.853 14.436 118.633 13.944 119.425 13.584C120.241 13.224 121.045 13.044 121.837 13.044C122.941 13.188 123.973 13.872 124.933 15.096ZM122.449 16.284C121.801 16.38 121.129 16.644 120.433 17.076C119.737 17.508 119.077 18.084 118.453 18.804C117.853 19.524 117.301 20.364 116.797 21.324C116.293 22.284 115.897 23.316 115.609 24.42C117.529 23.46 119.125 22.284 120.397 20.892C121.669 19.476 122.353 17.94 122.449 16.284Z" fill="#F15025"/>
<path d="M137.472 8.184C136.512 8.184 135.768 7.92 135.24 7.392C134.736 6.84 134.484 6.18 134.484 5.412C134.484 5.22 134.508 4.992 134.556 4.728C134.628 4.464 134.712 4.236 134.808 4.044C135.12 4.188 135.576 4.296 136.176 4.368C136.8 4.416 137.52 4.44 138.336 4.44C139.56 4.44 140.94 4.392 142.476 4.296C144.036 4.176 145.524 4.056 146.94 3.936C148.356 3.816 149.604 3.708 150.684 3.612C151.764 3.492 152.46 3.432 152.772 3.432C153.66 3.432 154.296 3.768 154.68 4.44C155.088 5.088 155.388 5.964 155.58 7.068C154.956 7.02 154.332 6.984 153.708 6.96C153.108 6.912 152.592 6.888 152.16 6.888C151.392 6.888 150.612 6.912 149.82 6.96C149.052 7.008 148.272 7.08 147.48 7.176C147.144 7.872 146.772 8.7 146.364 9.66C145.956 10.596 145.548 11.58 145.14 12.612C144.756 13.644 144.384 14.676 144.024 15.708C143.664 16.716 143.352 17.628 143.088 18.444C142.56 20.028 142.092 21.492 141.684 22.836C141.3 24.18 140.952 25.44 140.64 26.616C140.352 27.768 140.1 28.872 139.884 29.928C139.668 30.984 139.476 32.016 139.308 33.024C137.7 32.784 136.356 31.776 135.276 30C135.468 29.256 135.696 28.452 135.96 27.588C136.248 26.7 136.572 25.704 136.932 24.6C137.316 23.472 137.76 22.2 138.264 20.784C138.768 19.368 139.344 17.76 139.992 15.96C140.232 15.288 140.484 14.592 140.748 13.872C141.012 13.128 141.264 12.396 141.504 11.676C141.768 10.956 141.996 10.26 142.188 9.588C142.404 8.916 142.584 8.304 142.728 7.752C141.72 7.872 140.76 7.98 139.848 8.076C138.96 8.148 138.168 8.184 137.472 8.184ZM163.774 15.096C163.678 16.584 163.414 17.868 162.982 18.948C162.55 20.004 161.926 20.94 161.11 21.756C160.318 22.548 159.346 23.268 158.194 23.916C157.042 24.564 155.698 25.188 154.162 25.788C154.162 25.932 154.15 26.088 154.126 26.256C154.126 26.4 154.126 26.556 154.126 26.724C154.126 27.036 154.15 27.36 154.198 27.696C154.246 28.032 154.33 28.344 154.45 28.632C154.57 28.92 154.738 29.16 154.954 29.352C155.17 29.52 155.446 29.604 155.782 29.604C156.43 29.604 157.066 29.46 157.69 29.172C158.314 28.884 158.902 28.536 159.454 28.128C160.03 27.696 160.558 27.24 161.038 26.76C161.542 26.256 161.986 25.8 162.37 25.392C162.61 25.608 162.814 25.812 162.982 26.004C161.902 27.444 160.714 28.644 159.418 29.604C158.146 30.54 156.934 31.14 155.782 31.404C154.126 31.212 152.83 30.612 151.894 29.604C150.982 28.572 150.526 27.336 150.526 25.896C150.526 24.912 150.658 23.916 150.922 22.908C151.21 21.876 151.594 20.892 152.074 19.956C152.578 18.996 153.154 18.096 153.802 17.256C154.474 16.416 155.182 15.684 155.926 15.06C156.694 14.436 157.474 13.944 158.266 13.584C159.082 13.224 159.886 13.044 160.678 13.044C161.782 13.188 162.814 13.872 163.774 15.096ZM161.29 16.284C160.642 16.38 159.97 16.644 159.274 17.076C158.578 17.508 157.918 18.084 157.294 18.804C156.694 19.524 156.142 20.364 155.638 21.324C155.134 22.284 154.738 23.316 154.45 24.42C156.37 23.46 157.966 22.284 159.238 20.892C160.51 19.476 161.194 17.94 161.29 16.284ZM169.256 23.664C169.256 22.296 169.532 20.976 170.084 19.704C170.66 18.408 171.404 17.268 172.316 16.284C173.252 15.276 174.308 14.472 175.484 13.872C176.684 13.248 177.92 12.936 179.192 12.936C180.44 12.936 181.4 13.248 182.072 13.872C182.744 14.496 183.08 15.384 183.08 16.536C183.08 17.088 182.996 17.628 182.828 18.156C182.684 18.66 182.48 19.116 182.216 19.524C181.976 19.932 181.688 20.268 181.352 20.532C181.016 20.772 180.68 20.892 180.344 20.892C180.056 20.892 179.756 20.808 179.444 20.64C179.156 20.448 178.916 20.208 178.724 19.92C180.332 18.456 181.136 17.124 181.136 15.924C181.136 15.228 180.86 14.88 180.308 14.88C179.828 14.88 179.228 15.108 178.508 15.564C177.788 16.02 177.092 16.62 176.42 17.364C175.388 18.516 174.596 19.8 174.044 21.216C173.516 22.608 173.252 24.072 173.252 25.608C173.252 27.552 173.684 28.716 174.548 29.1C174.908 29.052 175.328 28.944 175.808 28.776C176.288 28.608 176.804 28.392 177.356 28.128C177.908 27.84 178.472 27.516 179.048 27.156C179.648 26.796 180.224 26.412 180.776 26.004C180.872 26.076 180.956 26.184 181.028 26.328C181.1 26.472 181.136 26.604 181.136 26.724C180.728 27.228 180.26 27.72 179.732 28.2C179.204 28.68 178.652 29.124 178.076 29.532C177.5 29.916 176.936 30.24 176.384 30.504C175.856 30.792 175.388 30.972 174.98 31.044C174.188 30.972 173.444 30.72 172.748 30.288C172.052 29.88 171.44 29.34 170.912 28.668C170.408 27.996 170 27.228 169.688 26.364C169.4 25.5 169.256 24.6 169.256 23.664ZM187.722 29.388C187.722 28.548 187.806 27.564 187.974 26.436C188.142 25.284 188.382 24.06 188.694 22.764C189.03 21.468 189.414 20.112 189.846 18.696C190.302 17.28 190.806 15.864 191.358 14.448C191.838 13.176 192.39 11.892 193.014 10.596C193.662 9.3 194.358 8.028 195.102 6.78C195.846 5.532 196.614 4.344 197.406 3.216C198.222 2.088 199.038 1.056 199.854 0.119998C200.238 0.119998 200.646 0.167999 201.078 0.263999C201.534 0.359999 201.966 0.491999 202.374 0.659998C202.806 0.803999 203.19 0.983999 203.526 1.2C203.886 1.416 204.174 1.632 204.39 1.848C202.59 3.696 200.97 5.568 199.53 7.464C198.09 9.336 196.95 11.1 196.11 12.756C195.654 13.668 195.234 14.52 194.85 15.312C194.49 16.104 194.154 16.896 193.842 17.688C193.53 18.456 193.242 19.236 192.978 20.028C192.738 20.796 192.51 21.612 192.294 22.476C196.902 16.596 200.322 13.656 202.554 13.656C203.178 13.656 203.85 13.86 204.57 14.268C205.29 14.676 205.926 15.228 206.478 15.924C205.734 16.74 204.966 17.724 204.174 18.876C203.382 20.028 202.65 21.192 201.978 22.368C201.33 23.52 200.79 24.6 200.358 25.608C199.95 26.592 199.746 27.324 199.746 27.804C199.746 28.044 199.782 28.212 199.854 28.308C199.926 28.38 200.082 28.416 200.322 28.416C200.682 28.416 200.97 28.368 201.186 28.272C201.402 28.176 201.534 28.128 201.582 28.128C201.702 28.32 201.774 28.452 201.798 28.524C201.822 28.596 201.834 28.656 201.834 28.704C201.834 28.8 201.69 28.944 201.402 29.136C201.114 29.304 200.766 29.484 200.358 29.676C199.974 29.844 199.59 30 199.206 30.144C198.822 30.288 198.534 30.36 198.342 30.36C198.102 30.36 197.862 30.288 197.622 30.144C197.382 30.024 197.166 29.856 196.974 29.64C196.806 29.424 196.662 29.184 196.542 28.92C196.446 28.656 196.398 28.38 196.398 28.092C196.398 27.732 196.494 27.204 196.686 26.508C196.902 25.788 197.19 24.96 197.55 24.024C197.91 23.064 198.342 22.02 198.846 20.892C199.35 19.764 199.89 18.612 200.466 17.436C200.466 17.34 200.418 17.292 200.322 17.292C200.25 17.292 200.058 17.388 199.746 17.58C199.458 17.772 199.182 17.964 198.918 18.156C198.054 18.804 197.178 19.608 196.29 20.568C195.426 21.504 194.574 22.536 193.734 23.664C192.918 24.792 192.138 25.992 191.394 27.264C190.674 28.512 190.05 29.772 189.522 31.044C189.45 31.212 189.342 31.368 189.198 31.512C189.054 31.656 188.934 31.728 188.838 31.728C188.766 31.728 188.658 31.644 188.514 31.476C188.394 31.308 188.274 31.092 188.154 30.828C188.058 30.588 187.962 30.336 187.866 30.072C187.77 29.808 187.722 29.58 187.722 29.388Z" fill="#222222"/>
</svg>
